<svg width="402" height="402" viewBox="0 0 402 402" fill="none" xmlns="http://www.w3.org/2000/svg">
<path d="M50.4269 165.318C50.4269 165.318 39.3075 214.362 71.4434 257.352C103.579 300.342 159.192 317.339 203.951 332.293C248.709 347.248 290.381 330.597 305.817 293.01C321.254 255.423 289.44 234.905 282.132 185.628C274.823 136.35 280.307 122.208 247.487 84.5084C214.668 46.8089 147.791 47.2591 102.856 85.4491C57.9201 123.639 50.4269 165.318 50.4269 165.318Z" fill="#DBF227"/>
<path opacity="0.7" d="M50.4269 165.318C50.4269 165.318 39.3075 214.362 71.4434 257.352C103.579 300.342 159.192 317.339 203.951 332.293C248.709 347.248 290.381 330.597 305.817 293.01C321.254 255.423 289.44 234.905 282.132 185.628C274.823 136.35 280.307 122.208 247.487 84.5084C214.668 46.8089 147.791 47.2591 102.856 85.4491C57.9201 123.639 50.4269 165.318 50.4269 165.318Z" fill="#FFFAFA"/>
<path d="M311.558 100.13C311.558 100.13 312.362 95.9654 307.675 88.9867C302.987 82.008 299.892 77.9398 299.892 77.9398C299.892 77.9398 295.068 86.9606 299.377 93.859C302.562 98.7433 306.15 103.353 310.103 107.64L311.558 100.13Z" fill="#DBF227"/>
<path d="M297.995 124.515C297.995 124.515 298.799 120.351 294.111 113.372C289.424 106.393 286.312 102.325 286.312 102.325C286.312 102.325 281.488 111.346 285.806 118.236C288.989 123.124 292.577 127.736 296.531 132.025L297.995 124.515Z" fill="#DBF227"/>
<path d="M309.797 107.165C309.797 107.165 311.052 103.145 318.489 99.1734C325.926 95.2016 330.549 93.1193 330.549 93.1193C330.549 93.1193 330.549 103.33 323.489 107.39C318.372 110.189 313.031 112.559 307.522 114.474L309.797 107.165Z" fill="#DBF227"/>
<path d="M293.556 135.916C293.556 135.916 295.229 132.009 303.036 128.881C310.842 125.754 315.691 124.13 315.691 124.13C315.691 124.13 314.589 134.284 307.168 137.58C301.789 139.83 296.229 141.624 290.549 142.943L293.556 135.916Z" fill="#DBF227"/>
<path d="M288.925 169.821C288.925 169.821 289.729 165.648 296.724 160.977C303.719 156.306 308.101 153.677 308.101 153.677C308.101 153.677 309.146 163.839 302.585 168.615C297.798 171.945 292.739 174.865 287.462 177.346L288.925 169.821Z" fill="#DBF227"/>
<path d="M287.229 177.981C287.229 177.981 288.628 173.961 284.978 166.396C281.328 158.83 278.827 154.336 278.827 154.336C278.827 154.336 272.797 162.577 276.053 170.014C278.51 175.302 281.407 180.374 284.712 185.177L287.229 177.981Z" fill="#DBF227"/>
<path d="M276.737 201.113C276.737 201.113 277.541 196.948 284.528 192.269C291.514 187.589 295.912 184.92 295.912 184.92C295.912 184.92 296.957 195.075 290.397 199.858C285.608 203.185 280.549 206.105 275.273 208.59L276.737 201.113Z" fill="#DBF227"/>
<path d="M276.335 223.866C276.335 223.866 276.069 219.629 281.633 213.317C287.197 207.006 290.791 203.412 290.791 203.412C290.791 203.412 294.377 212.972 289.239 219.259C285.449 223.692 281.294 227.798 276.817 231.536L276.335 223.866Z" fill="#DBF227"/>
<path d="M312.29 99.1653C311.148 103.451 309.771 107.67 308.165 111.804C303.526 123.277 296.258 129.838 291.844 140.153C287.43 150.469 291.345 165.64 286.867 179.123C282.389 192.606 275.507 199.223 275.241 208.775C274.976 218.326 278.184 244.882 278.184 244.882" stroke="#191919" stroke-width="0.5" stroke-linecap="round" stroke-linejoin="round"/>
<path d="M309.202 109.923L316.438 106.329" stroke="#191919" stroke-width="0.5" stroke-linecap="round" stroke-linejoin="round"/>
<path d="M310.577 104.424L308.865 99.2297" stroke="#191919" stroke-width="0.5" stroke-linecap="round" stroke-linejoin="round"/>
<path d="M292.286 139.727C292.286 139.727 298.332 136.809 304.515 133.914" stroke="#191919" stroke-width="0.5" stroke-linecap="round" stroke-linejoin="round"/>
<path d="M296.531 132.025C296.531 132.025 293.822 122.562 289.963 115.889" stroke="#191919" stroke-width="0.5" stroke-linecap="round" stroke-linejoin="round"/>
<path d="M287.977 175.795C292.064 170.841 296.85 166.508 302.183 162.931" stroke="#191919" stroke-width="0.5" stroke-linecap="round" stroke-linejoin="round"/>
<path d="M285.806 181.447C284.94 177.371 283.735 173.374 282.204 169.499C280.017 164.37 279.695 163.694 279.695 163.694" stroke="#191919" stroke-width="0.5" stroke-linecap="round" stroke-linejoin="round"/>
<path d="M275.241 208.775C277.221 205.722 279.433 202.827 281.858 200.116C284.239 197.624 286.82 195.333 289.577 193.266" stroke="#191919" stroke-width="0.5" stroke-linecap="round" stroke-linejoin="round"/>
<path d="M276.817 231.496C277.132 228.273 278.301 225.192 280.202 222.571C283.225 218.752 286.803 213.687 288.242 211.685" stroke="#191919" stroke-width="0.5" stroke-linecap="round" stroke-linejoin="round"/>
<path d="M262.45 148.37C262.45 148.37 262.506 145.661 266.373 141.938C270.24 138.216 272.717 136.125 272.717 136.125C272.717 136.125 274.478 142.38 270.876 146.087C268.237 148.696 265.383 151.079 262.345 153.21L262.45 148.37Z" fill="#DBF227"/>
<path d="M267.571 165.367C267.571 165.367 267.635 162.665 271.495 158.935C275.354 155.204 277.846 153.122 277.846 153.122C277.846 153.122 279.599 159.377 276.005 163.091C273.363 165.698 270.507 168.078 267.467 170.207L267.571 165.367Z" fill="#DBF227"/>
<path d="M262.586 152.977C262.586 152.977 262.361 150.284 258.269 146.826C254.177 143.369 251.572 141.424 251.572 141.424C251.572 141.424 250.205 147.783 254.032 151.257C256.832 153.692 259.831 155.889 262.996 157.825L262.586 152.977Z" fill="#DBF227"/>
<path d="M268.793 173.053C268.793 173.053 268.279 170.4 263.849 167.425C259.419 164.45 256.613 162.754 256.613 162.754C256.613 162.754 255.929 169.186 260.094 172.273C263.134 174.413 266.348 176.296 269.702 177.901L268.793 173.053Z" fill="#DBF227"/>
<path d="M267.073 194.761C267.073 194.761 267.129 192.06 263.431 188.192C259.732 184.325 257.344 182.114 257.344 182.114C257.344 182.114 255.318 188.289 258.743 192.148C261.271 194.866 264.023 197.367 266.968 199.625L267.073 194.761Z" fill="#DBF227"/>
<path d="M267.024 200.067C267.024 200.067 266.695 197.39 269.999 193.169C273.304 188.948 275.45 186.528 275.45 186.528C275.45 186.528 278.079 192.47 275.048 196.65C272.804 199.605 270.316 202.367 267.611 204.907L267.024 200.067Z" fill="#DBF227"/>
<path d="M270.224 222.595C270.224 222.595 271.028 220.015 275.796 217.554C280.564 215.094 283.523 213.768 283.523 213.768C283.523 213.768 283.45 220.264 278.956 222.804C275.685 224.564 272.272 226.046 268.753 227.235L270.224 222.595Z" fill="#DBF227"/>
<path d="M270.417 215.874C270.417 215.874 270.474 213.173 266.767 209.305C263.061 205.438 260.681 203.227 260.681 203.227C260.681 203.227 258.655 209.402 262.088 213.261C264.616 215.979 267.367 218.48 270.313 220.738L270.417 215.874Z" fill="#DBF227"/>
<path d="M267.579 230.073C267.579 230.073 268.319 227.476 265.722 222.796C263.125 218.117 261.372 215.376 261.372 215.376C261.372 215.376 257.843 220.835 260.19 225.442C261.944 228.714 263.969 231.834 266.245 234.768L267.579 230.073Z" fill="#DBF227"/>
<path d="M262.104 147.663C262.234 150.482 262.518 153.292 262.956 156.081C264.291 163.839 267.917 168.945 269.268 175.923C270.618 182.902 266.124 191.834 267.081 200.847C268.038 209.86 271.414 214.893 270.297 220.859C269.179 226.825 263.591 242.913 263.591 242.913" stroke="#191919" stroke-width="0.5" stroke-linecap="round" stroke-linejoin="round"/>
<path d="M262.586 154.77L258.574 151.554" stroke="#191919" stroke-width="0.5" stroke-linecap="round" stroke-linejoin="round"/>
<path d="M262.474 151.168L264.243 148.169" stroke="#191919" stroke-width="0.5" stroke-linecap="round" stroke-linejoin="round"/>
<path d="M269.059 175.594C269.059 175.594 265.706 172.965 262.249 170.327" stroke="#191919" stroke-width="0.5" stroke-linecap="round" stroke-linejoin="round"/>
<path d="M267.467 170.231C269.241 166.976 271.343 163.911 273.738 161.081" stroke="#191919" stroke-width="0.5" stroke-linecap="round" stroke-linejoin="round"/>
<path d="M266.856 198.588C264.986 194.954 262.597 191.612 259.764 188.667" stroke="#191919" stroke-width="0.5" stroke-linecap="round" stroke-linejoin="round"/>
<path d="M267.443 202.415C268.529 200 269.814 197.679 271.286 195.477C273.344 192.582 273.633 192.204 273.633 192.204" stroke="#191919" stroke-width="0.5" stroke-linecap="round" stroke-linejoin="round"/>
<path d="M269.219 225.321C271.024 223.813 272.958 222.468 275 221.301C276.273 220.701 277.494 219.997 278.65 219.195" stroke="#191919" stroke-width="0.5" stroke-linecap="round" stroke-linejoin="round"/>
<path d="M270.305 220.843C269.49 218.675 268.509 216.573 267.37 214.555C266.226 212.686 264.93 210.914 263.495 209.257" stroke="#191919" stroke-width="0.5" stroke-linecap="round" stroke-linejoin="round"/>
<path d="M266.245 234.768C266.489 232.722 266.181 230.648 265.352 228.762C263.993 225.98 262.458 222.33 261.823 220.907" stroke="#191919" stroke-width="0.5" stroke-linecap="round" stroke-linejoin="round"/>
<path d="M68.1952 204.924C68.1952 204.924 66.9249 201.249 60.0105 197.897C53.0961 194.544 48.7545 192.743 48.7545 192.743C48.7545 192.743 49.1083 202.069 55.6528 205.551C60.4108 207.953 65.3621 209.951 70.4545 211.524L68.1952 204.924Z" fill="#DBF227"/>
<path d="M68.6696 230.41C68.6696 230.41 67.3993 226.744 60.4849 223.383C53.5705 220.023 49.2289 218.23 49.2289 218.23C49.2289 218.23 49.5826 227.556 56.1272 231.045C60.8863 233.443 65.8374 235.438 70.9288 237.011L68.6696 230.41Z" fill="#DBF227"/>
<path d="M70.0364 211.283C70.0364 211.283 69.1601 207.496 73.2524 200.976C77.3448 194.455 80.0302 190.644 80.0302 190.644C80.0302 190.644 84.6853 198.733 80.995 205.165C78.2405 209.726 75.1072 214.048 71.6284 218.085L70.0364 211.283Z" fill="#DBF227"/>
<path d="M70.3902 241.457C70.3902 241.457 69.9158 237.598 74.6514 231.544C79.3869 225.49 82.4743 221.984 82.4743 221.984C82.4743 221.984 86.2611 230.515 81.9115 236.521C78.6912 240.766 75.1225 244.736 71.2424 248.388L70.3902 241.457Z" fill="#DBF227"/>
<path d="M82.2894 270.369C82.2894 270.369 81.0191 266.703 84.3798 259.788C87.7405 252.874 90.0078 248.798 90.0078 248.798C90.0078 248.798 95.4991 256.347 92.5082 263.133C90.2517 267.959 87.5945 272.588 84.5647 276.97L82.2894 270.369Z" fill="#DBF227"/>
<path d="M84.7014 277.597C84.7014 277.597 83.9617 273.786 77.594 269.477C71.2263 265.167 67.2144 262.787 67.2144 262.787C67.2144 262.787 66.2335 272.066 72.2233 276.455C76.5896 279.516 81.2046 282.205 86.0199 284.495L84.7014 277.597Z" fill="#DBF227"/>
<path d="M87.0169 300.696C87.0169 300.696 85.7466 297.022 89.1073 290.107C92.468 283.193 94.7353 279.117 94.7353 279.117C94.7353 279.117 100.227 286.666 97.2357 293.452C94.9756 298.28 92.3158 302.911 89.2842 307.297L87.0169 300.696Z" fill="#DBF227"/>
<path d="M97.1473 318.85C97.1473 318.85 94.9846 315.634 96.488 308.085C97.9915 300.535 99.1654 296.025 99.1654 296.025C99.1654 296.025 106.401 301.942 105.203 309.259C104.243 314.501 102.844 319.654 101.023 324.663L97.1473 318.85Z" fill="#DBF227"/>
<path d="M68.34 203.822C69.4053 207.73 70.2535 211.695 70.8806 215.697C72.4886 226.889 69.7389 235.411 70.9932 245.59C72.2474 255.768 82.2492 265.955 84.9426 278.666C87.636 291.378 85.1998 299.779 89.3565 307.434C93.5132 315.088 108.242 334.625 108.242 334.625" stroke="#191919" stroke-width="0.5" stroke-linecap="round" stroke-linejoin="round"/>
<path d="M70.8243 213.735L74.8926 207.577" stroke="#191919" stroke-width="0.5" stroke-linecap="round" stroke-linejoin="round"/>
<path d="M69.3932 208.759L65.6466 205.438" stroke="#191919" stroke-width="0.5" stroke-linecap="round" stroke-linejoin="round"/>
<path d="M71.1379 245.051C71.1379 245.051 74.571 239.97 78.1327 234.848" stroke="#191919" stroke-width="0.5" stroke-linecap="round" stroke-linejoin="round"/>
<path d="M70.9529 237.011C70.9529 237.011 64.4727 230.748 58.3623 227.275" stroke="#191919" stroke-width="0.5" stroke-linecap="round" stroke-linejoin="round"/>
<path d="M84.2833 275.523C85.239 269.733 87.032 264.113 89.6058 258.84" stroke="#191919" stroke-width="0.5" stroke-linecap="round" stroke-linejoin="round"/>
<path d="M85.1596 280.982C82.609 278.162 79.8283 275.559 76.8463 273.199C72.762 270.144 72.1992 269.758 72.1992 269.758" stroke="#191919" stroke-width="0.5" stroke-linecap="round" stroke-linejoin="round"/>
<path d="M89.3485 307.434C89.5165 304.113 89.9358 300.81 90.6028 297.552C91.3439 294.504 92.3334 291.522 93.5615 288.636" stroke="#191919" stroke-width="0.5" stroke-linecap="round" stroke-linejoin="round"/>
<path d="M101.023 324.663C99.7936 321.973 99.3024 319.003 99.5995 316.06C100.243 311.654 100.741 306.01 100.966 303.767" stroke="#191919" stroke-width="0.5" stroke-linecap="round" stroke-linejoin="round"/>
<path d="M51.5203 265.569C51.5203 265.569 50.3223 263.406 51.6811 258.703C53.0398 254 54.0287 251.202 54.0287 251.202C54.0287 251.202 58.29 255.342 57.1483 259.917C56.2557 263.19 55.0912 266.382 53.6669 269.461L51.5203 265.569Z" fill="#DBF227"/>
<path d="M63.3713 276.648C63.3713 276.648 62.1813 274.486 63.5321 269.782C64.8828 265.079 65.8798 262.281 65.8798 262.281C65.8798 262.281 70.141 266.421 68.9993 270.996C68.1116 274.269 66.9497 277.462 65.526 280.54L63.3713 276.648Z" fill="#DBF227"/>
<path d="M53.7474 269.147C53.7474 269.147 52.3323 267.121 47.5083 266.269C42.6843 265.416 39.7417 265.071 39.7417 265.071C39.7417 265.071 41.5829 270.699 46.1737 271.712C49.5062 272.354 52.8869 272.715 56.28 272.789L53.7474 269.147Z" fill="#DBF227"/>
<path d="M67.8656 282.204C67.8656 282.204 66.2576 280.339 61.3612 280.001C56.4649 279.663 53.5062 279.631 53.5062 279.631C53.5062 279.631 55.9182 285.05 60.6216 285.557C64.0006 285.838 67.3971 285.838 70.7761 285.557L67.8656 282.204Z" fill="#DBF227"/>
<path d="M76.4684 300.109C76.4684 300.109 75.2704 297.946 70.5751 296.588C65.8797 295.229 62.9692 294.578 62.9692 294.578C62.9692 294.578 64.2074 300.39 68.6857 301.862C71.9296 302.852 75.2511 303.567 78.6151 304L76.4684 300.109Z" fill="#DBF227"/>
<path d="M78.8643 304.322C78.8643 304.322 77.3769 302.352 78.0603 297.512C78.7437 292.672 79.3226 289.746 79.3226 289.746C79.3226 289.746 84.1466 293.235 83.6481 297.938C83.232 301.304 82.5327 304.628 81.5577 307.876L78.8643 304.322Z" fill="#DBF227"/>
<path d="M91.7283 320.651C91.7283 320.651 91.1977 318.239 93.8187 314.115C96.4398 309.99 98.1845 307.57 98.1845 307.57C98.1845 307.57 101.111 312.748 98.7231 316.816C96.9472 319.707 94.93 322.442 92.6931 324.993L91.7283 320.651Z" fill="#DBF227"/>
<path d="M88.7937 315.256C88.7937 315.256 87.6038 313.094 82.9004 311.743C78.197 310.392 75.3026 309.725 75.3026 309.725C75.3026 309.725 76.5327 315.538 81.019 317.017C84.2624 318.017 87.5838 318.743 90.9485 319.188L88.7937 315.256Z" fill="#DBF227"/>
<path d="M93.071 327.783C93.071 327.783 92.468 325.371 88.247 322.886C84.026 320.402 81.405 319.011 81.405 319.011C81.405 319.011 81.1236 324.945 85.0873 327.509C87.9742 329.288 91.0052 330.821 94.1484 332.092L93.071 327.783Z" fill="#DBF227"/>
<path d="M50.9414 265.167C52.3392 267.332 53.8529 269.42 55.476 271.422C60.0909 276.946 65.2848 279.285 69.5701 284.206C73.8554 289.126 74.3941 298.228 79.2663 304.893C84.1386 311.558 89.1475 314.002 90.9886 319.236C92.8298 324.47 95.8126 339.738 95.8126 339.738" stroke="#191919" stroke-width="0.5" stroke-linecap="round" stroke-linejoin="round"/>
<path d="M54.5675 270.57L49.9203 269.863" stroke="#191919" stroke-width="0.5" stroke-linecap="round" stroke-linejoin="round"/>
<path d="M52.8228 267.764L52.8469 264.588" stroke="#191919" stroke-width="0.5" stroke-linecap="round" stroke-linejoin="round"/>
<path d="M69.2405 284.053C69.2405 284.053 65.3813 283.515 61.4417 283.016" stroke="#191919" stroke-width="0.5" stroke-linecap="round" stroke-linejoin="round"/>
<path d="M65.526 280.54C65.4313 277.157 65.6845 273.773 66.2818 270.441" stroke="#191919" stroke-width="0.5" stroke-linecap="round" stroke-linejoin="round"/>
<path d="M78.0603 303.245C74.9122 301.232 71.4892 299.685 67.8978 298.654" stroke="#191919" stroke-width="0.5" stroke-linecap="round" stroke-linejoin="round"/>
<path d="M80.2713 305.986C80.0206 303.583 79.9722 301.162 80.1266 298.75C80.4241 295.534 80.4804 295.092 80.4804 295.092" stroke="#191919" stroke-width="0.5" stroke-linecap="round" stroke-linejoin="round"/>
<path d="M92.1866 323.264C92.9081 321.241 93.8067 319.285 94.872 317.419C95.5997 316.357 96.2422 315.238 96.7936 314.075" stroke="#191919" stroke-width="0.5" stroke-linecap="round" stroke-linejoin="round"/>
<path d="M90.9887 319.236C89.35 317.899 87.6109 316.689 85.7868 315.618C84.0221 314.667 82.1829 313.86 80.2874 313.206" stroke="#191919" stroke-width="0.5" stroke-linecap="round" stroke-linejoin="round"/>
<path d="M94.1645 332.092C93.4157 330.363 92.2195 328.864 90.6992 327.751C88.3515 326.183 85.4652 324.012 84.2672 323.168" stroke="#191919" stroke-width="0.5" stroke-linecap="round" stroke-linejoin="round"/>
<path d="M281.593 217.562H224.983C222.981 217.562 221.357 219.186 221.357 221.188V343.292C221.357 345.295 222.981 346.918 224.983 346.918H281.593C283.596 346.918 285.219 345.295 285.219 343.292V221.188C285.219 219.186 283.596 217.562 281.593 217.562Z" fill="#FFFAFA" stroke="#191919" stroke-width="1.01" stroke-linecap="round" stroke-linejoin="round"/>
<path d="M279.88 234.535H226.704C224.701 234.535 223.078 236.158 223.078 238.161V340.205C223.078 342.207 224.701 343.831 226.704 343.831H279.88C281.883 343.831 283.506 342.207 283.506 340.205V238.161C283.506 236.158 281.883 234.535 279.88 234.535Z" fill="#DBF227"/>
<path opacity="0.5" d="M279.88 234.535H226.704C224.701 234.535 223.078 236.158 223.078 238.161V340.205C223.078 342.207 224.701 343.831 226.704 343.831H279.88C281.883 343.831 283.506 342.207 283.506 340.205V238.161C283.506 236.158 281.883 234.535 279.88 234.535Z" fill="#FFFAFA"/>
<path d="M268.488 189.664H238.105V217.562H268.488V189.664Z" fill="#191919" stroke="#191919" stroke-width="1.01" stroke-linecap="round" stroke-linejoin="round"/>
<path d="M240.637 192.421V214.555" stroke="#FFFAFA" stroke-width="1.01" stroke-linecap="round" stroke-linejoin="round"/>
<path d="M245.333 192.421V214.555" stroke="#FFFAFA" stroke-width="1.01" stroke-linecap="round" stroke-linejoin="round"/>
<path d="M252.038 199.464V214.555" stroke="#FFFAFA" stroke-width="1.01" stroke-linecap="round" stroke-linejoin="round"/>
<path d="M252.038 192.421V196.112" stroke="#FFFAFA" stroke-width="1.01" stroke-linecap="round" stroke-linejoin="round"/>
<path d="M281.577 245.011H225.007V307.442H281.577V245.011Z" fill="#FFFAFA"/>
<path d="M252.914 298.791C264.486 298.791 273.867 289.41 273.867 277.838C273.867 266.267 264.486 256.886 252.914 256.886C241.343 256.886 231.962 266.267 231.962 277.838C231.962 289.41 241.343 298.791 252.914 298.791Z" fill="#191919"/>
<path d="M256.749 263.423H249.079V292.254H256.749V263.423Z" fill="#FF2149"/>
<path d="M267.33 281.673V274.003H238.499V281.673H267.33Z" fill="#FF2149"/>
<path d="M341.362 287.752H252.303C250.194 287.752 248.484 289.461 248.484 291.571V343.372C248.484 345.481 250.194 347.191 252.303 347.191H341.362C343.472 347.191 345.181 345.481 345.181 343.372V291.571C345.181 289.461 343.472 287.752 341.362 287.752Z" fill="#FFFAFA" stroke="#191919" stroke-linecap="round" stroke-linejoin="round"/>
<path d="M257.738 313.56C256.792 313.56 255.884 313.184 255.214 312.514C254.545 311.845 254.169 310.937 254.169 309.99V300.342C254.167 299.873 254.259 299.408 254.438 298.974C254.617 298.54 254.88 298.145 255.211 297.813C255.543 297.481 255.937 297.217 256.37 297.037C256.804 296.857 257.269 296.764 257.738 296.764C258.687 296.764 259.597 297.141 260.268 297.812C260.939 298.483 261.316 299.393 261.316 300.342V309.99C261.316 310.46 261.223 310.925 261.044 311.358C260.864 311.792 260.6 312.186 260.268 312.517C259.935 312.849 259.541 313.112 259.107 313.291C258.673 313.469 258.208 313.561 257.738 313.56Z" fill="#191919" stroke="#191919" stroke-width="1.01" stroke-linecap="round" stroke-linejoin="round"/>
<path d="M260.158 300.013V305.994" stroke="#FFFAFA" stroke-width="1.01" stroke-linecap="round" stroke-linejoin="round"/>
<path d="M260.158 307.538V310.818" stroke="#FFFAFA" stroke-width="1.01" stroke-linecap="round" stroke-linejoin="round"/>
<path d="M273.36 313.56C272.413 313.56 271.505 313.184 270.836 312.514C270.166 311.845 269.79 310.937 269.79 309.99V300.342C269.789 299.873 269.881 299.408 270.06 298.974C270.239 298.54 270.501 298.145 270.833 297.813C271.165 297.481 271.558 297.217 271.992 297.037C272.426 296.857 272.891 296.764 273.36 296.764C273.83 296.764 274.294 296.857 274.728 297.037C275.162 297.217 275.556 297.481 275.887 297.813C276.219 298.145 276.481 298.54 276.66 298.974C276.839 299.408 276.931 299.873 276.93 300.342V309.99C276.93 310.937 276.554 311.845 275.884 312.514C275.215 313.184 274.307 313.56 273.36 313.56Z" fill="#191919" stroke="#191919" stroke-width="1.01" stroke-linecap="round" stroke-linejoin="round"/>
<path d="M275.788 300.013V305.994" stroke="#FFFAFA" stroke-width="1.01" stroke-linecap="round" stroke-linejoin="round"/>
<path d="M275.788 307.538V310.818" stroke="#FFFAFA" stroke-width="1.01" stroke-linecap="round" stroke-linejoin="round"/>
<path d="M289.014 313.56C288.067 313.56 287.159 313.184 286.49 312.514C285.82 311.845 285.444 310.937 285.444 309.99V300.342C285.443 299.873 285.535 299.408 285.714 298.974C285.893 298.54 286.155 298.145 286.487 297.813C286.818 297.481 287.212 297.217 287.646 297.037C288.08 296.857 288.544 296.764 289.014 296.764C289.483 296.764 289.948 296.857 290.382 297.037C290.815 297.217 291.209 297.481 291.541 297.813C291.873 298.145 292.135 298.54 292.314 298.974C292.493 299.408 292.585 299.873 292.584 300.342V309.99C292.584 310.937 292.208 311.845 291.538 312.514C290.869 313.184 289.961 313.56 289.014 313.56Z" fill="#191919" stroke="#191919" stroke-width="1.01" stroke-linecap="round" stroke-linejoin="round"/>
<path d="M291.426 300.013V305.994" stroke="#FFFAFA" stroke-width="1.01" stroke-linecap="round" stroke-linejoin="round"/>
<path d="M291.426 307.538V310.818" stroke="#FFFAFA" stroke-width="1.01" stroke-linecap="round" stroke-linejoin="round"/>
<path d="M304.652 313.56C303.705 313.56 302.797 313.184 302.128 312.514C301.458 311.845 301.082 310.937 301.082 309.99V300.342C301.081 299.873 301.172 299.408 301.351 298.974C301.53 298.54 301.793 298.145 302.125 297.813C302.456 297.481 302.85 297.217 303.284 297.037C303.717 296.857 304.182 296.764 304.652 296.764C305.121 296.764 305.586 296.857 306.02 297.037C306.453 297.217 306.847 297.481 307.179 297.813C307.51 298.145 307.773 298.54 307.952 298.974C308.131 299.408 308.223 299.873 308.221 300.342V309.99C308.221 310.937 307.845 311.845 307.176 312.514C306.506 313.184 305.599 313.56 304.652 313.56Z" fill="#191919" stroke="#191919" stroke-width="1.01" stroke-linecap="round" stroke-linejoin="round"/>
<path d="M307.064 300.013V305.994" stroke="#FFFAFA" stroke-width="1.01" stroke-linecap="round" stroke-linejoin="round"/>
<path d="M307.064 307.538V310.818" stroke="#FFFAFA" stroke-width="1.01" stroke-linecap="round" stroke-linejoin="round"/>
<path d="M320.29 313.56C319.82 313.561 319.355 313.469 318.921 313.291C318.487 313.112 318.092 312.849 317.76 312.517C317.428 312.186 317.164 311.792 316.984 311.358C316.804 310.925 316.712 310.46 316.712 309.99V300.342C316.712 299.393 317.089 298.483 317.76 297.812C318.431 297.141 319.341 296.764 320.29 296.764C320.759 296.764 321.224 296.857 321.657 297.037C322.091 297.217 322.485 297.481 322.817 297.813C323.148 298.145 323.411 298.54 323.59 298.974C323.769 299.408 323.86 299.873 323.859 300.342V309.99C323.859 310.937 323.483 311.845 322.814 312.514C322.144 313.184 321.236 313.56 320.29 313.56Z" fill="#191919" stroke="#191919" stroke-width="1.01" stroke-linecap="round" stroke-linejoin="round"/>
<path d="M322.701 300.013V305.994" stroke="#FFFAFA" stroke-width="1.01" stroke-linecap="round" stroke-linejoin="round"/>
<path d="M322.701 307.538V310.818" stroke="#FFFAFA" stroke-width="1.01" stroke-linecap="round" stroke-linejoin="round"/>
<path d="M335.919 313.56C334.972 313.56 334.065 313.184 333.395 312.514C332.726 311.845 332.349 310.937 332.349 309.99V300.342C332.348 299.873 332.44 299.408 332.619 298.974C332.798 298.54 333.061 298.145 333.392 297.813C333.724 297.481 334.118 297.217 334.551 297.037C334.985 296.857 335.45 296.764 335.919 296.764C336.389 296.764 336.854 296.857 337.287 297.037C337.721 297.217 338.115 297.481 338.446 297.813C338.778 298.145 339.041 298.54 339.22 298.974C339.399 299.408 339.49 299.873 339.489 300.342V309.99C339.489 310.937 339.113 311.845 338.443 312.514C337.774 313.184 336.866 313.56 335.919 313.56Z" fill="#191919" stroke="#191919" stroke-width="1.01" stroke-linecap="round" stroke-linejoin="round"/>
<path d="M338.331 300.013V305.994" stroke="#FFFAFA" stroke-width="1.01" stroke-linecap="round" stroke-linejoin="round"/>
<path d="M338.331 307.538V310.818" stroke="#FFFAFA" stroke-width="1.01" stroke-linecap="round" stroke-linejoin="round"/>
<path d="M257.738 339.192C256.792 339.192 255.884 338.815 255.214 338.146C254.545 337.477 254.169 336.569 254.169 335.622V325.974C254.169 325.027 254.545 324.119 255.214 323.45C255.884 322.78 256.792 322.404 257.738 322.404C258.208 322.403 258.673 322.495 259.107 322.673C259.541 322.852 259.935 323.115 260.268 323.447C260.6 323.778 260.864 324.172 261.044 324.606C261.223 325.039 261.316 325.504 261.316 325.974V335.622C261.316 336.091 261.223 336.556 261.044 336.99C260.864 337.423 260.6 337.817 260.268 338.149C259.935 338.48 259.541 338.743 259.107 338.922C258.673 339.101 258.208 339.193 257.738 339.192Z" fill="#191919" stroke="#191919" stroke-width="1.01" stroke-linecap="round" stroke-linejoin="round"/>
<path d="M260.158 325.684V331.666" stroke="#FFFAFA" stroke-width="1.01" stroke-linecap="round" stroke-linejoin="round"/>
<path d="M260.158 333.21V336.49" stroke="#FFFAFA" stroke-width="1.01" stroke-linecap="round" stroke-linejoin="round"/>
<path d="M273.36 339.192C272.413 339.192 271.505 338.815 270.836 338.146C270.166 337.477 269.79 336.569 269.79 335.622V325.974C269.79 325.027 270.166 324.119 270.836 323.45C271.505 322.78 272.413 322.404 273.36 322.404C273.829 322.403 274.294 322.495 274.727 322.674C275.161 322.853 275.555 323.116 275.887 323.447C276.218 323.779 276.481 324.173 276.66 324.606C276.839 325.04 276.931 325.505 276.93 325.974V335.622C276.931 336.091 276.839 336.556 276.66 336.989C276.481 337.423 276.218 337.817 275.887 338.148C275.555 338.48 275.161 338.743 274.727 338.922C274.294 339.101 273.829 339.193 273.36 339.192Z" fill="#191919" stroke="#191919" stroke-width="1.01" stroke-linecap="round" stroke-linejoin="round"/>
<path d="M275.788 325.684V331.666" stroke="#FFFAFA" stroke-width="1.01" stroke-linecap="round" stroke-linejoin="round"/>
<path d="M275.788 333.21V336.49" stroke="#FFFAFA" stroke-width="1.01" stroke-linecap="round" stroke-linejoin="round"/>
<path d="M289.014 339.192C288.067 339.192 287.159 338.815 286.49 338.146C285.82 337.476 285.444 336.569 285.444 335.622V325.974C285.444 325.027 285.82 324.119 286.49 323.45C287.159 322.78 288.067 322.404 289.014 322.404C289.961 322.404 290.869 322.78 291.538 323.45C292.208 324.119 292.584 325.027 292.584 325.974V335.622C292.584 336.569 292.208 337.476 291.538 338.146C290.869 338.815 289.961 339.192 289.014 339.192Z" fill="#191919" stroke="#191919" stroke-width="1.01" stroke-linecap="round" stroke-linejoin="round"/>
<path d="M291.426 325.684V331.666" stroke="#FFFAFA" stroke-width="1.01" stroke-linecap="round" stroke-linejoin="round"/>
<path d="M291.426 333.21V336.49" stroke="#FFFAFA" stroke-width="1.01" stroke-linecap="round" stroke-linejoin="round"/>
<path d="M304.652 339.192C304.183 339.193 303.718 339.101 303.284 338.922C302.851 338.743 302.457 338.48 302.125 338.148C301.793 337.817 301.531 337.423 301.352 336.989C301.173 336.556 301.081 336.091 301.082 335.622V325.974C301.081 325.505 301.173 325.04 301.352 324.606C301.531 324.173 301.793 323.779 302.125 323.447C302.457 323.116 302.851 322.853 303.284 322.674C303.718 322.495 304.183 322.403 304.652 322.404C305.599 322.404 306.506 322.78 307.176 323.45C307.845 324.119 308.221 325.027 308.221 325.974V335.622C308.221 336.569 307.845 337.477 307.176 338.146C306.506 338.815 305.599 339.192 304.652 339.192Z" fill="#191919" stroke="#191919" stroke-width="1.01" stroke-linecap="round" stroke-linejoin="round"/>
<path d="M307.064 325.684V331.666" stroke="#FFFAFA" stroke-width="1.01" stroke-linecap="round" stroke-linejoin="round"/>
<path d="M307.064 333.21V336.49" stroke="#FFFAFA" stroke-width="1.01" stroke-linecap="round" stroke-linejoin="round"/>
<path d="M320.29 339.192C319.82 339.193 319.355 339.101 318.921 338.922C318.487 338.743 318.092 338.48 317.76 338.149C317.428 337.817 317.164 337.423 316.984 336.99C316.804 336.556 316.712 336.091 316.712 335.622V325.974C316.712 325.504 316.804 325.039 316.984 324.606C317.164 324.172 317.428 323.778 317.76 323.447C318.092 323.115 318.487 322.852 318.921 322.673C319.355 322.495 319.82 322.403 320.29 322.404C321.236 322.404 322.144 322.78 322.814 323.45C323.483 324.119 323.859 325.027 323.859 325.974V335.622C323.859 336.569 323.483 337.477 322.814 338.146C322.144 338.815 321.236 339.192 320.29 339.192Z" fill="#191919" stroke="#191919" stroke-width="1.01" stroke-linecap="round" stroke-linejoin="round"/>
<path d="M322.701 325.684V331.666" stroke="#FFFAFA" stroke-width="1.01" stroke-linecap="round" stroke-linejoin="round"/>
<path d="M322.701 333.21V336.49" stroke="#FFFAFA" stroke-width="1.01" stroke-linecap="round" stroke-linejoin="round"/>
<path d="M335.919 339.192C334.972 339.192 334.065 338.815 333.395 338.146C332.726 337.477 332.349 336.569 332.349 335.622V325.974C332.349 325.027 332.726 324.119 333.395 323.45C334.065 322.78 334.972 322.404 335.919 322.404C336.388 322.403 336.853 322.495 337.287 322.674C337.72 322.853 338.114 323.116 338.446 323.447C338.778 323.779 339.04 324.173 339.219 324.606C339.398 325.04 339.49 325.505 339.489 325.974V335.622C339.49 336.091 339.398 336.556 339.219 336.989C339.04 337.423 338.778 337.817 338.446 338.148C338.114 338.48 337.72 338.743 337.287 338.922C336.853 339.101 336.388 339.193 335.919 339.192Z" fill="#191919" stroke="#191919" stroke-width="1.01" stroke-linecap="round" stroke-linejoin="round"/>
<path d="M338.331 325.684V331.666" stroke="#FFFAFA" stroke-width="1.01" stroke-linecap="round" stroke-linejoin="round"/>
<path d="M338.331 333.21V336.49" stroke="#FFFAFA" stroke-width="1.01" stroke-linecap="round" stroke-linejoin="round"/>
<path d="M265.65 290.839V292.849" stroke="#191919" stroke-width="0.5" stroke-linecap="round" stroke-linejoin="round"/>
<path d="M265.65 296.58V339.473" stroke="#191919" stroke-width="0.5" stroke-linecap="round" stroke-linejoin="round" stroke-dasharray="4.64 4.64"/>
<path d="M265.65 341.338V343.348" stroke="#191919" stroke-width="0.5" stroke-linecap="round" stroke-linejoin="round"/>
<path d="M281.287 290.839V292.849" stroke="#191919" stroke-width="0.5" stroke-linecap="round" stroke-linejoin="round"/>
<path d="M281.287 296.58V339.473" stroke="#191919" stroke-width="0.5" stroke-linecap="round" stroke-linejoin="round" stroke-dasharray="4.64 4.64"/>
<path d="M281.287 341.338V343.348" stroke="#191919" stroke-width="0.5" stroke-linecap="round" stroke-linejoin="round"/>
<path d="M296.925 290.839V292.849" stroke="#191919" stroke-width="0.5" stroke-linecap="round" stroke-linejoin="round"/>
<path d="M296.925 296.58V339.473" stroke="#191919" stroke-width="0.5" stroke-linecap="round" stroke-linejoin="round" stroke-dasharray="4.64 4.64"/>
<path d="M296.925 341.338V343.348" stroke="#191919" stroke-width="0.5" stroke-linecap="round" stroke-linejoin="round"/>
<path d="M312.555 290.839V292.849" stroke="#191919" stroke-width="0.5" stroke-linecap="round" stroke-linejoin="round"/>
<path d="M312.555 296.58V339.473" stroke="#191919" stroke-width="0.5" stroke-linecap="round" stroke-linejoin="round" stroke-dasharray="4.64 4.64"/>
<path d="M312.555 341.338V343.348" stroke="#191919" stroke-width="0.5" stroke-linecap="round" stroke-linejoin="round"/>
<path d="M328.193 290.839V292.849" stroke="#191919" stroke-width="0.5" stroke-linecap="round" stroke-linejoin="round"/>
<path d="M328.193 296.58V339.473" stroke="#191919" stroke-width="0.5" stroke-linecap="round" stroke-linejoin="round" stroke-dasharray="4.64 4.64"/>
<path d="M328.193 341.338V343.348" stroke="#191919" stroke-width="0.5" stroke-linecap="round" stroke-linejoin="round"/>
<path d="M250.977 317.475H342.287" stroke="#191919" stroke-width="0.5" stroke-linecap="round" stroke-linejoin="round" stroke-dasharray="5 5"/>
<path d="M338.275 295.977V282.847H317.041V295.977L311.952 302.947C311.236 303.934 310.851 305.121 310.851 306.34V346.918H344.434V306.324C344.433 305.105 344.048 303.918 343.332 302.931L338.275 295.977Z" fill="#191919" stroke="#191919" stroke-width="1.01" stroke-linecap="round" stroke-linejoin="round"/>
<path d="M338.283 276.825H317.13V279.101H338.283V276.825Z" fill="#191919" stroke="#191919" stroke-width="1.01" stroke-linecap="round" stroke-linejoin="round"/>
<path d="M341.354 271.656H313.954V277.485H341.354V271.656Z" fill="#DBF227" stroke="#191919" stroke-width="1.01" stroke-linecap="round" stroke-linejoin="round"/>
<path d="M340.333 278.988H314.975C314.411 278.988 313.954 279.445 313.954 280.009V282.598C313.954 283.162 314.411 283.619 314.975 283.619H340.333C340.897 283.619 341.354 283.162 341.354 282.598V280.009C341.354 279.445 340.897 278.988 340.333 278.988Z" fill="#191919" stroke="#191919" stroke-width="1.01" stroke-linecap="round" stroke-linejoin="round"/>
<path d="M332.567 308.824H310.859V335.855H332.567V308.824Z" fill="#DBF227" stroke="#191919" stroke-width="1.01" stroke-linecap="round" stroke-linejoin="round"/>
<path d="M204.465 93.0067H97.7664C91.319 93.0067 86.0923 98.2334 86.0923 104.681V335.123C86.0923 341.571 91.319 346.797 97.7664 346.797H204.465C210.913 346.797 216.139 341.571 216.139 335.123V104.681C216.139 98.2334 210.913 93.0067 204.465 93.0067Z" fill="#191919"/>
<mask id="mask0_2_374" style="mask-type:luminance" maskUnits="userSpaceOnUse" x="86" y="93" width="131" height="254">
<path d="M204.465 93.0067H97.7664C91.319 93.0067 86.0923 98.2334 86.0923 104.681V335.123C86.0923 341.571 91.319 346.797 97.7664 346.797H204.465C210.913 346.797 216.139 341.571 216.139 335.123V104.681C216.139 98.2334 210.913 93.0067 204.465 93.0067Z" fill="white"/>
</mask>
<g mask="url(#mask0_2_374)">
<path opacity="0.2" d="M97.284 93.0067C94.3115 93.0067 91.4608 94.1875 89.3589 96.2894C87.2571 98.3913 86.0762 101.242 86.0762 104.214V335.59C86.0747 337.229 86.4341 338.849 87.1288 340.335C87.8236 341.82 88.8367 343.134 90.0962 344.184L165.97 93.0067H97.284Z" fill="#FFFAFA"/>
<path d="M155.542 339.457C155.542 338.582 155.282 337.727 154.797 337C154.311 336.273 153.62 335.706 152.812 335.371C152.004 335.037 151.115 334.949 150.257 335.12C149.399 335.29 148.611 335.712 147.993 336.33C147.375 336.948 146.953 337.736 146.783 338.594C146.612 339.452 146.7 340.341 147.034 341.149C147.369 341.957 147.936 342.648 148.663 343.134C149.39 343.62 150.245 343.879 151.12 343.879C152.293 343.879 153.417 343.413 154.247 342.584C155.076 341.754 155.542 340.63 155.542 339.457Z" stroke="#FFFAFA" stroke-linecap="round" stroke-linejoin="round"/>
</g>
<path d="M204.465 93.0067H97.7664C91.319 93.0067 86.0923 98.2334 86.0923 104.681V335.123C86.0923 341.571 91.319 346.797 97.7664 346.797H204.465C210.913 346.797 216.139 341.571 216.139 335.123V104.681C216.139 98.2334 210.913 93.0067 204.465 93.0067Z" stroke="#191919" stroke-linecap="round" stroke-linejoin="round"/>
<path d="M210.367 110.244H91.8812V331.738H210.367V110.244Z" fill="#DBF227"/>
<mask id="mask1_2_374" style="mask-type:luminance" maskUnits="userSpaceOnUse" x="91" y="110" width="120" height="222">
<path d="M210.367 110.244H91.8812V331.738H210.367V110.244Z" fill="white"/>
</mask>
<g mask="url(#mask1_2_374)">
<path d="M188.136 219.54L169.355 202.568L151.12 202.881L132.885 202.568L114.104 219.54L69.6908 248.79V335.091H148.772H153.468H232.549V248.79L188.136 219.54Z" fill="#FFFAFA" stroke="#191919" stroke-width="1.01" stroke-linecap="round" stroke-linejoin="round"/>
<path d="M149.6 283.386L141.504 294.867C141.504 294.867 151.152 290.493 160.446 286.706C169.741 282.92 181.423 270.972 184.044 266.606C186.665 262.241 190.476 255.825 190.476 255.825L178.802 246.828H191.352C191.352 246.828 191.055 233.16 187.268 222.057" stroke="#191919" stroke-width="1.01" stroke-linecap="round" stroke-linejoin="round"/>
<path d="M145.902 288.403C144.543 287.832 143.168 287.261 141.794 286.706C132.475 282.92 120.817 270.972 118.196 266.606C115.575 262.241 111.764 255.825 111.764 255.825L123.446 246.828H110.952C110.952 246.828 111.25 233.16 115.036 222.057" stroke="#191919" stroke-width="1.01" stroke-linecap="round" stroke-linejoin="round"/>
<path d="M131.269 203.854C131.269 203.854 127.643 261.429 149.6 283.386C149.6 283.386 172.764 267.483 172.764 204.546L131.269 203.854Z" fill="#FFFAFA"/>
<mask id="mask2_2_374" style="mask-type:luminance" maskUnits="userSpaceOnUse" x="131" y="203" width="42" height="81">
<path d="M131.269 203.854C131.269 203.854 127.643 261.429 149.6 283.386C149.6 283.386 172.764 267.483 172.764 204.546L131.269 203.854Z" fill="white"/>
</mask>
<g mask="url(#mask2_2_374)">
<path d="M143.53 138.336H162.207C167.561 138.336 172.696 140.463 176.482 144.249C180.269 148.035 182.396 153.17 182.396 158.525V200.421C182.397 203.98 181.697 207.505 180.336 210.794C178.974 214.082 176.979 217.071 174.463 219.588C171.947 222.106 168.96 224.103 165.672 225.466C162.384 226.829 158.86 227.531 155.301 227.532H150.477C146.918 227.532 143.393 226.831 140.105 225.469C136.817 224.107 133.829 222.11 131.312 219.594C128.795 217.077 126.799 214.089 125.437 210.801C124.075 207.513 123.374 203.988 123.374 200.429V158.525C123.374 153.17 125.501 148.035 129.287 144.249C133.073 140.463 138.208 138.336 143.562 138.336H143.53Z" fill="#DBF227"/>
<path opacity="0.5" d="M143.53 138.336H162.207C167.561 138.336 172.696 140.463 176.482 144.249C180.269 148.035 182.396 153.17 182.396 158.525V200.421C182.397 203.98 181.697 207.505 180.336 210.794C178.974 214.082 176.979 217.071 174.463 219.588C171.947 222.106 168.96 224.103 165.672 225.466C162.384 226.829 158.86 227.531 155.301 227.532H150.477C146.918 227.532 143.393 226.831 140.105 225.469C136.817 224.107 133.829 222.11 131.312 219.594C128.795 217.077 126.799 214.089 125.437 210.801C124.075 207.513 123.374 203.988 123.374 200.429V158.525C123.374 153.17 125.501 148.035 129.287 144.249C133.073 140.463 138.208 138.336 143.562 138.336H143.53Z" fill="#FFFAFA"/>
</g>
<path d="M131.269 203.854C131.269 203.854 127.643 261.429 149.6 283.386C149.6 283.386 172.764 267.483 172.764 204.546L131.269 203.854Z" stroke="#191919" stroke-width="1.01" stroke-linecap="round" stroke-linejoin="round"/>
<path d="M140.507 198.95C140.507 198.95 138.497 224.075 150.629 233.658C150.629 233.658 163.429 226.72 163.429 199.255L140.507 198.95Z" stroke="#191919" stroke-width="1.01" stroke-linecap="round" stroke-linejoin="round"/>
<path d="M136.455 241.546L150.629 233.658L166.541 244.657" stroke="#191919" stroke-width="1.01" stroke-linecap="round" stroke-linejoin="round"/>
<path d="M154.44 246.386L157.206 238.434L150.629 233.658L141.986 238.434L146.481 245.67L139.39 266.968C141.946 273.336 145.275 279.028 149.6 283.362C149.6 283.362 155.759 279.133 161.725 266.405L154.44 246.386Z" fill="#DBF227" stroke="#191919" stroke-width="1.01" stroke-linecap="round" stroke-linejoin="round"/>
<path d="M182.772 289.796C189.07 288.769 193.343 282.832 192.316 276.534C191.289 270.236 185.352 265.964 179.054 266.99C172.756 268.017 168.483 273.955 169.51 280.252C170.537 286.55 176.475 290.823 182.772 289.796Z" fill="#FFFAFA" stroke="#191919" stroke-width="1.01" stroke-linecap="round" stroke-linejoin="round"/>
<path d="M188.583 281.546C190.327 277.303 188.302 272.45 184.059 270.706C179.817 268.962 174.964 270.987 173.22 275.229C171.476 279.472 173.501 284.325 177.743 286.069C181.985 287.813 186.838 285.788 188.583 281.546Z" fill="#FFFAFA" stroke="#191919" stroke-width="1.01" stroke-linecap="round" stroke-linejoin="round"/>
<path d="M180.9 280.162C180.431 280.162 179.981 279.976 179.649 279.644C179.318 279.312 179.131 278.862 179.131 278.393V210.511C179.131 210.042 179.318 209.592 179.649 209.261C179.981 208.929 180.431 208.743 180.9 208.743C181.369 208.743 181.819 208.929 182.151 209.261C182.483 209.592 182.669 210.042 182.669 210.511V278.393C182.67 278.626 182.625 278.856 182.536 279.071C182.448 279.286 182.318 279.482 182.153 279.646C181.989 279.811 181.793 279.941 181.578 280.029C181.363 280.118 181.133 280.163 180.9 280.162Z" fill="#191919"/>
<path d="M125.078 304.78H124.91C123.302 304.507 107.873 289.504 106.418 285.484C104.962 281.464 105.372 275.032 105.388 274.791C105.403 274.557 105.511 274.338 105.687 274.182C105.864 274.027 106.095 273.948 106.329 273.963C106.564 273.978 106.783 274.085 106.938 274.262C107.093 274.438 107.172 274.669 107.157 274.904C107.157 274.96 106.795 281.215 108.082 284.905C109.264 288.274 122.996 301.725 125.167 303.036C126.373 302.658 130.795 298.694 132.403 294.634C132.446 294.526 132.509 294.427 132.59 294.343C132.671 294.26 132.768 294.193 132.874 294.147C132.981 294.1 133.096 294.075 133.212 294.074C133.329 294.072 133.444 294.093 133.553 294.135C133.661 294.178 133.759 294.242 133.843 294.323C133.927 294.404 133.994 294.5 134.04 294.607C134.086 294.714 134.111 294.829 134.113 294.945C134.115 295.061 134.094 295.177 134.051 295.285C132.379 299.587 127.112 304.78 125.078 304.78Z" fill="#FFFAFA" stroke="#191919" stroke-width="1.01" stroke-linecap="round" stroke-linejoin="round"/>
<path d="M111.37 304.78C109.328 304.78 104.07 299.586 102.365 295.237C102.279 295.018 102.283 294.774 102.376 294.559C102.47 294.343 102.645 294.173 102.864 294.087C103.082 294.001 103.326 294.005 103.542 294.098C103.758 294.192 103.927 294.367 104.014 294.586C105.622 298.646 110.035 302.626 111.25 302.987C113.42 301.677 127.153 288.226 128.335 284.857C129.621 281.167 129.267 274.912 129.259 274.855C129.244 274.621 129.323 274.39 129.478 274.214C129.634 274.037 129.853 273.93 130.087 273.915C130.322 273.9 130.553 273.979 130.729 274.134C130.906 274.289 131.013 274.508 131.028 274.743C131.028 275.016 131.414 281.416 129.999 285.436C128.584 289.456 113.187 304.491 111.507 304.732L111.37 304.78Z" fill="#FFFAFA" stroke="#191919" stroke-width="1.01" stroke-linecap="round" stroke-linejoin="round"/>
<path d="M118.437 244.778C117.969 244.776 117.52 244.589 117.189 244.257C116.858 243.926 116.671 243.477 116.669 243.009V213.398C116.669 212.929 116.855 212.479 117.187 212.147C117.518 211.815 117.968 211.629 118.437 211.629C118.906 211.629 119.356 211.815 119.688 212.147C120.02 212.479 120.206 212.929 120.206 213.398V243.009C120.206 243.241 120.16 243.471 120.071 243.686C119.983 243.901 119.852 244.096 119.688 244.26C119.524 244.424 119.329 244.554 119.114 244.643C118.9 244.732 118.67 244.778 118.437 244.778Z" fill="#191919"/>
<path d="M129.991 278.361C129.522 278.359 129.074 278.172 128.742 277.84C128.411 277.509 128.224 277.061 128.222 276.592V255.286C128.222 252.595 127.153 250.014 125.25 248.111C123.347 246.209 120.767 245.14 118.076 245.14C115.384 245.14 112.804 246.209 110.901 248.111C108.998 250.014 107.929 252.595 107.929 255.286V276.576C107.929 277.045 107.743 277.495 107.411 277.827C107.079 278.158 106.629 278.345 106.16 278.345C105.691 278.345 105.241 278.158 104.909 277.827C104.578 277.495 104.391 277.045 104.391 276.576V255.27C104.391 251.645 105.831 248.169 108.395 245.605C110.958 243.042 114.434 241.602 118.059 241.602C121.684 241.602 125.161 243.042 127.724 245.605C130.287 248.169 131.727 251.645 131.727 255.27V276.576C131.73 277.042 131.549 277.49 131.224 277.824C130.899 278.157 130.456 278.35 129.991 278.361Z" fill="#191919"/>
<path d="M100.731 291.943L100.433 292.175C99.5352 292.873 99.3727 294.166 100.07 295.063L101.377 296.746C102.074 297.644 103.368 297.806 104.265 297.109L104.564 296.877C105.461 296.18 105.624 294.887 104.926 293.989L103.619 292.306C102.922 291.409 101.629 291.246 100.731 291.943Z" fill="#FFFAFA" stroke="#191919" stroke-width="1.01" stroke-linecap="round" stroke-linejoin="round"/>
<path d="M131.575 296.866L131.873 297.098C132.771 297.796 134.064 297.633 134.761 296.735L136.068 295.053C136.766 294.155 136.603 292.862 135.705 292.165L135.407 291.933C134.509 291.236 133.216 291.398 132.519 292.296L131.212 293.978C130.514 294.876 130.677 296.169 131.575 296.866Z" fill="#FFFAFA" stroke="#191919" stroke-width="1.01" stroke-linecap="round" stroke-linejoin="round"/>
<path d="M121.814 166.645H121.066C118.749 166.645 116.87 168.524 116.87 170.842V178.375C116.87 180.693 118.749 182.572 121.066 182.572H121.814C124.132 182.572 126.011 180.693 126.011 178.375V170.842C126.011 168.524 124.132 166.645 121.814 166.645Z" fill="#FFFAFA" stroke="#191919" stroke-width="1.01" stroke-linecap="round" stroke-linejoin="round"/>
<path d="M183.593 166.645H182.846C180.528 166.645 178.649 168.524 178.649 170.842V178.375C178.649 180.693 180.528 182.572 182.846 182.572H183.593C185.911 182.572 187.79 180.693 187.79 178.375V170.842C187.79 168.524 185.911 166.645 183.593 166.645Z" fill="#FFFAFA" stroke="#191919" stroke-width="1.01" stroke-linecap="round" stroke-linejoin="round"/>
<path d="M143.53 126.743H162.207C167.561 126.743 172.696 128.87 176.482 132.656C180.269 136.442 182.396 141.577 182.396 146.931V188.827C182.396 196.016 179.54 202.909 174.457 207.992C169.375 213.075 162.481 215.93 155.293 215.93H150.469C146.909 215.93 143.385 215.229 140.097 213.867C136.809 212.505 133.821 210.509 131.304 207.992C128.787 205.475 126.791 202.488 125.429 199.199C124.067 195.911 123.366 192.387 123.366 188.827V146.931C123.366 141.581 125.49 136.45 129.27 132.664C133.051 128.879 138.18 126.749 143.53 126.743Z" fill="#FFFAFA" stroke="#191919" stroke-width="1.01" stroke-linecap="round" stroke-linejoin="round"/>
<path d="M145.926 161.998H136.616C135.777 161.998 135.096 162.678 135.096 163.518V163.791C135.096 164.63 135.777 165.31 136.616 165.31H145.926C146.765 165.31 147.446 164.63 147.446 163.791V163.518C147.446 162.678 146.765 161.998 145.926 161.998Z" fill="#191919" stroke="#191919" stroke-width="1.01" stroke-linecap="round" stroke-linejoin="round"/>
<path d="M170.328 161.998H161.017C160.178 161.998 159.498 162.678 159.498 163.518V163.791C159.498 164.63 160.178 165.31 161.017 165.31H170.328C171.167 165.31 171.847 164.63 171.847 163.791V163.518C171.847 162.678 171.167 161.998 170.328 161.998Z" fill="#191919" stroke="#191919" stroke-width="1.01" stroke-linecap="round" stroke-linejoin="round"/>
<path d="M144.72 172.096C144.72 174.01 143.844 175.553 142.758 175.553C141.673 175.553 140.805 174.01 140.805 172.096C140.805 170.183 141.681 168.631 142.758 168.631C143.836 168.631 144.72 170.183 144.72 172.096Z" fill="#191919" stroke="#191919" stroke-width="1.01" stroke-linecap="round" stroke-linejoin="round"/>
<path d="M166.734 172.096C166.734 174.01 165.857 175.553 164.772 175.553C163.686 175.553 162.81 174.01 162.81 172.096C162.81 170.183 163.686 168.631 164.772 168.631C165.857 168.631 166.734 170.183 166.734 172.096Z" fill="#191919" stroke="#191919" stroke-width="1.01" stroke-linecap="round" stroke-linejoin="round"/>
<path d="M163.429 126.743H142.308C137.278 126.743 132.454 128.741 128.897 132.298C125.34 135.855 123.342 140.679 123.342 145.709V190.275C123.342 197.079 126.045 203.605 130.856 208.416C135.667 213.227 142.193 215.93 148.997 215.93H156.78C160.15 215.931 163.486 215.268 166.599 213.98C169.712 212.691 172.541 210.801 174.924 208.418C177.306 206.036 179.196 203.207 180.485 200.094C181.774 196.981 182.437 193.644 182.436 190.275V145.709C182.436 143.215 181.944 140.745 180.988 138.442C180.033 136.138 178.632 134.045 176.866 132.283C175.101 130.522 173.005 129.126 170.7 128.175C168.394 127.224 165.923 126.737 163.429 126.743ZM177.901 183.995C177.901 183.995 177.901 189.414 172.482 194.841C172.482 194.841 166.758 187.308 164.346 186.705C162.786 186.319 156.981 186.432 153.041 186.56C149.11 186.432 143.297 186.319 141.785 186.705C139.373 187.308 133.649 194.841 133.649 194.841C128.23 189.414 128.23 183.995 128.23 183.995V159.288L131.052 155.574C132.131 154.193 132.75 152.508 132.821 150.757C132.891 149.006 132.411 147.277 131.446 145.813C130.432 144.259 129.991 142.401 130.198 140.557C130.405 138.713 131.247 136.998 132.58 135.707L132.636 135.659C133.927 134.41 135.601 133.633 137.388 133.452C139.174 133.271 140.97 133.697 142.485 134.662L146.698 137.966C148.535 139.401 150.799 140.18 153.13 140.18C155.461 140.18 157.725 139.401 159.562 137.966L163.759 134.662C165.282 133.692 167.087 133.262 168.884 133.443C170.681 133.624 172.365 134.404 173.664 135.659L173.712 135.707C175.047 137.023 175.883 138.762 176.076 140.626C176.27 142.49 175.809 144.364 174.774 145.926C173.843 147.385 173.388 149.097 173.473 150.826C173.558 152.554 174.178 154.214 175.248 155.574L178.167 159.288L177.901 183.995Z" fill="#191919" stroke="#191919" stroke-width="1.01" stroke-linecap="round" stroke-linejoin="round"/>
<path d="M157.391 182.966C157.391 182.966 161.009 182.484 161.009 184.574C161.009 186.665 158.895 188.184 154.682 186.681" fill="#FFFAFA"/>
<path d="M157.391 182.966C157.391 182.966 161.009 182.484 161.009 184.574C161.009 186.665 158.895 188.184 154.682 186.681" stroke="#191919" stroke-width="1.01" stroke-linecap="round" stroke-linejoin="round"/>
<path d="M157.086 165.913V183.392C157.086 184.351 156.706 185.27 156.029 185.948C155.352 186.626 154.434 187.008 153.476 187.01H150.26C147.96 187.171 147.156 186.608 146.883 185.636C146.798 185.312 146.781 184.973 146.833 184.643C146.886 184.312 147.007 183.996 147.188 183.714C147.188 182.814 151.032 182.814 151.032 182.814" fill="#FFFAFA"/>
<path d="M157.086 165.913V183.392C157.086 184.351 156.706 185.27 156.029 185.948C155.352 186.626 154.434 187.008 153.476 187.01H150.26C147.96 187.171 147.156 186.608 146.883 185.636C146.798 185.312 146.781 184.973 146.833 184.643C146.886 184.312 147.007 183.996 147.188 183.714C147.188 182.814 151.032 182.814 151.032 182.814" stroke="#191919" stroke-width="1.01" stroke-linecap="round" stroke-linejoin="round"/>
<path d="M153.299 196.98C149.943 196.999 146.641 196.137 143.723 194.48C143.436 194.287 143.235 193.991 143.164 193.653C143.092 193.315 143.155 192.962 143.34 192.67C143.524 192.378 143.815 192.169 144.151 192.088C144.487 192.007 144.841 192.06 145.138 192.236C147.665 193.617 150.502 194.334 153.381 194.32C156.261 194.306 159.09 193.561 161.604 192.156C161.758 192.065 161.929 192.007 162.107 191.984C162.284 191.961 162.464 191.974 162.637 192.023C162.809 192.071 162.969 192.154 163.109 192.266C163.248 192.379 163.363 192.518 163.447 192.676C163.532 192.834 163.583 193.007 163.598 193.185C163.614 193.364 163.593 193.543 163.537 193.713C163.481 193.883 163.392 194.04 163.274 194.175C163.156 194.309 163.012 194.418 162.85 194.496C159.922 196.105 156.64 196.959 153.299 196.98Z" fill="#FFFAFA" stroke="#191919" stroke-width="1.01" stroke-linecap="round" stroke-linejoin="round"/>
<path d="M162.979 177.322H168.816" stroke="#191919" stroke-width="1.01" stroke-linecap="round" stroke-linejoin="round"/>
<path d="M139.792 177.322H145.629" stroke="#191919" stroke-width="1.01" stroke-linecap="round" stroke-linejoin="round"/>
<path d="M116.669 326.617C122.432 326.617 127.104 321.945 127.104 316.181C127.104 310.417 122.432 305.745 116.669 305.745C110.905 305.745 106.233 310.417 106.233 316.181C106.233 321.945 110.905 326.617 116.669 326.617Z" stroke="#191919" stroke-width="0.724166" stroke-linecap="round" stroke-linejoin="round"/>
<path d="M116.652 318.762C116.094 318.762 115.558 318.54 115.163 318.145C114.768 317.75 114.546 317.214 114.546 316.655V309.982C114.546 309.424 114.768 308.888 115.163 308.493C115.558 308.098 116.094 307.876 116.652 307.876C117.211 307.876 117.747 308.098 118.142 308.493C118.537 308.888 118.759 309.424 118.759 309.982V316.655C118.759 317.214 118.537 317.75 118.142 318.145C117.747 318.54 117.211 318.762 116.652 318.762Z" fill="#191919"/>
<path d="M116.669 320.281C115.682 320.279 114.736 319.886 114.039 319.189C113.341 318.491 112.948 317.546 112.946 316.559V313.423C112.946 313.321 112.987 313.223 113.059 313.15C113.131 313.078 113.23 313.037 113.332 313.037C113.383 313.036 113.434 313.046 113.481 313.065C113.528 313.084 113.571 313.112 113.607 313.148C113.643 313.184 113.672 313.227 113.691 313.274C113.71 313.322 113.719 313.372 113.718 313.423V316.559C113.757 317.316 114.086 318.029 114.636 318.551C115.185 319.073 115.915 319.363 116.673 319.363C117.431 319.363 118.16 319.073 118.709 318.551C119.259 318.029 119.588 317.316 119.627 316.559V313.423C119.626 313.372 119.635 313.322 119.654 313.274C119.673 313.227 119.702 313.184 119.738 313.148C119.774 313.112 119.817 313.084 119.864 313.065C119.911 313.046 119.962 313.036 120.013 313.037C120.116 313.037 120.214 313.078 120.286 313.15C120.358 313.223 120.399 313.321 120.399 313.423V316.559C120.397 317.547 120.003 318.494 119.304 319.192C118.604 319.89 117.657 320.281 116.669 320.281Z" fill="#191919"/>
<path d="M116.668 324.285C116.618 324.285 116.568 324.275 116.522 324.256C116.476 324.236 116.434 324.208 116.398 324.172C116.363 324.136 116.336 324.093 116.317 324.047C116.299 324 116.29 323.95 116.291 323.899V319.879C116.291 319.773 116.333 319.671 116.408 319.595C116.484 319.52 116.586 319.477 116.693 319.477C116.799 319.477 116.901 319.52 116.977 319.595C117.052 319.671 117.095 319.773 117.095 319.879V323.899C117.096 323.954 117.086 324.008 117.065 324.059C117.043 324.109 117.011 324.154 116.971 324.191C116.93 324.227 116.882 324.255 116.83 324.271C116.778 324.288 116.723 324.292 116.668 324.285Z" fill="#191919"/>
<path d="M119.241 324.494H114.104C114.002 324.492 113.905 324.451 113.833 324.379C113.761 324.307 113.72 324.21 113.718 324.108C113.718 324.006 113.758 323.908 113.831 323.836C113.903 323.763 114.001 323.723 114.104 323.723H119.241C119.344 323.723 119.442 323.763 119.514 323.836C119.587 323.908 119.627 324.006 119.627 324.108C119.625 324.21 119.584 324.307 119.512 324.379C119.44 324.451 119.343 324.492 119.241 324.494Z" fill="#191919"/>
<path d="M185.772 326.617C191.536 326.617 196.208 321.945 196.208 316.181C196.208 310.417 191.536 305.745 185.772 305.745C180.009 305.745 175.336 310.417 175.336 316.181C175.336 321.945 180.009 326.617 185.772 326.617Z" stroke="#191919" stroke-width="0.724166" stroke-linecap="round" stroke-linejoin="round"/>
<path d="M192.212 313.126L189.165 314.887V313.439C189.163 313.11 189.031 312.795 188.797 312.563C188.564 312.331 188.248 312.201 187.919 312.201H181.037C180.873 312.2 180.712 312.231 180.56 312.293C180.409 312.355 180.272 312.446 180.156 312.561C180.04 312.676 179.948 312.813 179.886 312.964C179.823 313.114 179.791 313.276 179.791 313.439V318.987C179.789 319.151 179.821 319.314 179.883 319.465C179.945 319.617 180.037 319.755 180.153 319.871C180.269 319.987 180.407 320.078 180.559 320.141C180.71 320.203 180.873 320.234 181.037 320.233H187.919C188.083 320.233 188.245 320.201 188.396 320.138C188.547 320.076 188.684 319.984 188.8 319.868C188.916 319.752 189.008 319.615 189.07 319.464C189.133 319.313 189.165 319.151 189.165 318.987V317.58L192.212 319.341V313.126Z" fill="#191919"/>
<path d="M151.224 326.617C156.988 326.617 161.66 321.945 161.66 316.181C161.66 310.417 156.988 305.745 151.224 305.745C145.461 305.745 140.789 310.417 140.789 316.181C140.789 321.945 145.461 326.617 151.224 326.617Z" fill="#191919" stroke="#191919" stroke-width="0.724166" stroke-linecap="round" stroke-linejoin="round"/>
<path d="M156.507 313.978H145.942C145.65 313.978 145.361 314.042 145.096 314.166C144.831 314.29 144.596 314.471 144.409 314.696C144.222 314.921 144.086 315.184 144.012 315.467C143.938 315.75 143.927 316.046 143.98 316.334L144.286 317.99C144.308 318.102 144.368 318.203 144.456 318.277C144.544 318.35 144.654 318.391 144.768 318.392H147.984C148.116 318.392 148.243 318.34 148.337 318.246C148.43 318.153 148.483 318.026 148.483 317.894V316.101H154.03V317.894C154.03 318.026 154.083 318.153 154.176 318.246C154.27 318.34 154.397 318.392 154.529 318.392H157.745C157.861 318.392 157.973 318.352 158.062 318.279C158.152 318.206 158.213 318.104 158.235 317.99L158.541 316.334C158.595 316.04 158.583 315.738 158.505 315.449C158.427 315.161 158.285 314.894 158.089 314.668C157.894 314.441 157.65 314.262 157.377 314.143C157.103 314.023 156.805 313.967 156.507 313.978Z" fill="#DBF227"/>
<path d="M205.703 112.544H195.879V117.931H205.703V112.544Z" stroke="#191919" stroke-width="0.821067" stroke-linecap="round" stroke-linejoin="round"/>
<path d="M203.541 112.544H195.879V117.931H203.541V112.544Z" fill="#191919" stroke="#191919" stroke-width="0.725073" stroke-linecap="round" stroke-linejoin="round"/>
<path d="M207.062 114.047H205.679V116.419H207.062V114.047Z" fill="#191919" stroke="#191919" stroke-width="0.725073" stroke-linecap="round" stroke-linejoin="round"/>
<path d="M95.7162 114.208H93.9153V117.296H95.7162V114.208Z" fill="#191919" stroke="#191919" stroke-width="0.883086" stroke-linecap="round" stroke-linejoin="round"/>
<path d="M98.5464 113.131H96.7454V117.304H98.5464V113.131Z" fill="#191919" stroke="#191919" stroke-width="0.883086" stroke-linecap="round" stroke-linejoin="round"/>
<path d="M101.376 111.844H99.5755V117.296H101.376V111.844Z" fill="#191919" stroke="#191919" stroke-width="0.883086" stroke-linecap="round" stroke-linejoin="round"/>
</g>
<path d="M210.367 110.244H91.8812V331.738H210.367V110.244Z" stroke="#191919" stroke-linecap="round" stroke-linejoin="round"/>
<path d="M64.5773 346.797H365.362" stroke="#191919" stroke-width="1.01" stroke-linecap="round" stroke-linejoin="round"/>
<path d="M48.0953 346.797H56.0468" stroke="#191919" stroke-width="1.01" stroke-linecap="round" stroke-linejoin="round"/>
</svg>
